<?xml version="1.0" encoding="UTF-8"?>
<svg id="Capa_1" data-name="Capa 1" xmlns="http://www.w3.org/2000/svg" viewBox="0 0 429.07 204.06">
  <defs>
    <style>
      .cls-1 {
        fill: #382117;
      }

      .cls-1, .cls-2, .cls-3, .cls-4, .cls-5, .cls-6, .cls-7, .cls-8, .cls-9, .cls-10, .cls-11, .cls-12, .cls-13, .cls-14, .cls-15, .cls-16, .cls-17, .cls-18, .cls-19, .cls-20, .cls-21, .cls-22, .cls-23, .cls-24, .cls-25, .cls-26, .cls-27, .cls-28, .cls-29, .cls-30, .cls-31, .cls-32, .cls-33, .cls-34, .cls-35 {
        stroke-width: 0px;
      }

      .cls-2 {
        fill: #60331f;
      }

      .cls-3 {
        fill: #331f16;
      }

      .cls-4 {
        fill: #fbfbfa;
      }

      .cls-5 {
        fill: #fcfcfb;
      }

      .cls-6 {
        fill: #c46428;
      }

      .cls-7 {
        fill: #61321b;
      }

      .cls-8 {
        fill: #693923;
      }

      .cls-9 {
        fill: #fcfcfc;
      }

      .cls-10 {
        fill: #eeb80f;
      }

      .cls-11 {
        fill: #f56bb0;
      }

      .cls-12 {
        fill: #683722;
      }

      .cls-13 {
        fill: #1b1817;
      }

      .cls-14 {
        fill: #63331c;
      }

      .cls-15 {
        fill: #502816;
      }

      .cls-16 {
        fill: #fdfdfd;
      }

      .cls-17 {
        fill: #452413;
      }

      .cls-18 {
        fill: #fbf4ef;
      }

      .cls-19 {
        fill: #baa99f;
      }

      .cls-20 {
        fill: #67341d;
      }

      .cls-21 {
        fill: #0e0907;
      }

      .cls-22 {
        fill: #e96f23;
      }

      .cls-23 {
        fill: #462d24;
      }

      .cls-24 {
        fill: #fafafa;
      }

      .cls-25 {
        fill: #fbf4f0;
      }

      .cls-26 {
        fill: #71574d;
      }

      .cls-27 {
        fill: #66341d;
      }

      .cls-28 {
        fill: #c9c4c1;
      }

      .cls-29 {
        fill: #66351f;
      }

      .cls-30 {
        fill: #5b2f1b;
      }

      .cls-31 {
        fill: #040202;
      }

      .cls-32 {
        fill: #4d3831;
      }

      .cls-33 {
        fill: #66351e;
      }

      .cls-34 {
        fill: #f1bb06;
      }

      .cls-35 {
        fill: #3b231f;
      }
    </style>
  </defs>
  <path class="cls-31" d="M9.95,188.97c-5.57,1.32-6.86-2.69-7.99-6.62-9.1-31.65,14.65-59.63,47.81-56.54,9.23.86,17.64,4.31,26.85,7.52.76-14.9,8.97-26.49,15.98-38.6,7.94-13.7,10.99-27.99,7.88-43.97-2.42-12.43-1.15-25.21,1.1-37.73,1.49-8.3,3.97-10.93,12.21-11.95,21.11-2.61,41.73-.68,61.47,7.71,5.17,2.2,10.34,3.54,15.93,2.53,12.81-2.33,25.32-.45,38.02,1.65,18,2.97,36.09,1.07,54.09-1.18,13.32-1.67,26.12,1.02,38.65,5.04,6.38,2.05,8.38,7.49,8.56,13.81.45,15.59-1.3,30.93-6.08,45.76-2.42,7.49-2.35,14.37.46,21.78,4.77,12.54,8.02,25.61,12.82,38.19,4.41,11.57.57,22.19-7.08,31.5-3.62,4.4-7.98,7.99-12.53,11.35-6.12,4.52-11.35,9.65-13.2,17.48-.6,2.53-2.36,4.65-5.12,4.86-11.88.92-23.77,3.07-35.7.55-2.75-.58-5.47-1.38-7.88-2.92-2.92-1.78-6.13-.8-9.21-.92-1.3-.05-2.61.39-3.94.18-1.67-.27-3.7-.62-3.67-2.61.03-1.84,2.11-1.76,3.51-1.93,2.82-.34,5.87-.24,5.92-4.34.55-11.47,6.17-19.21,16.94-23.18,3.09-1.14,6-2.75,9.28-3.37,10.66-.94,19.44,3.23,27.25,10.05,4.19,4.19,5.32,4.34,10.1,1.08,8.98-6.12,15.82-13.91,18.86-24.61,1.19-5.8.27-11.4-2.44-16.49-5.46-10.24-8.5-21.29-11.52-32.38-1.4-5.14-2.76-10.29-4.72-15.26-.64-1.61-1.69-3.44.29-4.99,2.35-1.23,3.64-3.21,4.36-5.74,3.69-12.97,5.61-26.23,6.26-39.66.23-4.77-.15-9.87-6.06-11.76-13.74-4.35-27.73-4.98-42.05-4.09-8.63.54-16.36,3.21-24.19,6.18-8.04-1.9-15.77-4.9-24.01-6.17-12.06-1.86-24.05-2.08-36.08-.06-3.1.52-6.2,1.12-9.37.85-15.12-8.46-31.57-11.48-48.65-12.47-7.15-.41-14.17-1.49-20.85,2-2.09,1.45-2.63,3.7-3.14,5.99-3.38,15.15-2.1,30.28.16,45.42.38,2.52,2.05,4.07,3.92,5.49,1.52,1.68.35,3.19-.56,4.45-4.81,6.64-7.74,14.19-10.83,21.69-3.66,8.87-7.51,17.67-13.62,25.23-2.46,3.05-2.89,6.57-2.36,10.3-1.96,6.73,1.09,12.36,4.23,17.81,3.92,6.81,9.33,12.41,15.35,17.42,7.08,6.58,14.67,7.22,23.11,2.51,2.99-1.67,6.58-2.27,10.06-2.78,7,.48,13.69,1.98,19.55,6.08,4.45,3.11,7.77,7.15,9.3,12.44.92,3.18,2.23,6.19,3.6,9.18.2,3.11-2.64,3.35-4.37,4.63-4.33,7.96-11.7,9.21-19.65,8.56-7.91-.65-15.79-1.65-23.65-2.75-6.35-.89-10.54-4.46-11.98-10.92-.74-1.76-1.25-3.55-1.08-5.49,0-2.24.91-4.37.78-6.61-2.36-4.67-7.2-6.49-10.98-9.5-3.71-2.96-7.85-5.39-11.07-8.97-4-5.26-6.95-11.28-11.5-16.15-11.72-8.11-24.59-12.2-38.89-10.87-20.24,1.88-35.09,22.47-30.66,42.32.72,3.24,1.59,6.45,2.61,9.62.48,1.48,1.52,3.18-.59,4.38Z"/>
  <path class="cls-27" d="M9.95,188.97c.5-3.81-1.64-7.02-2.64-10.43-7.85-26.79,15.08-48.81,36.96-47.51,12.77.76,24.32,4.15,34.42,12.12-6.21,3.02-12.91,4.86-18.91,8.44-13.54,8.07-25.02,18.35-34.49,30.95-1.67,2.22-2.93,4.86-5.55,6.25-3.27.06-6.53.12-9.8.18Z"/>
  <path class="cls-22" d="M19.75,188.79c12.31-19.68,29.07-34.21,50.3-43.52,2.73-1.19,5.63-1.96,8.64-2.12,4.5,4.77,7.27,10.72,11.02,16,.23,3.06-2.46,3.67-4.27,4.8-8.13,5.07-16,10.49-23.51,16.46-3.12,2.48-5.11,6.04-8.47,8.22-11.24.23-22.48.76-33.73.16Z"/>
  <path class="cls-20" d="M53.48,188.63c4.08-7.62,11.41-11.8,17.87-16.89,5.85-4.6,12.88-7.46,18.36-12.59,6.58,5,13.17,9.99,19.75,14.99,1.16.88,2.63,1.45,3.08,3.06-2.58,1.88-6.14,1.32-8.6,3.59-1.41,1.3-3.34,2.13-3.93,4.48,4.16,1.44,7.86.56,11.49-1.12-.06,2.04-.12,4.07-.18,6.1-1.44-1.67-3.38-1.04-5.13-1.05-16.1-.09-32.2-.12-48.29-.2-1.48,0-2.95-.24-4.43-.36Z"/>
  <path class="cls-34" d="M397.72,71.36c5.5,2.99,9.97,0,14.59-3.81,2.78-2.29,5.75-.91,6.33,2.58.95,5.69,2.55,10.34,8.56,12.79,2.82,1.15,2.29,4.4-.43,5.3-5.84,1.91-8.77,5.48-9.85,11.55-.66,3.69-4.16,4.41-7.39,1.55-4.04-3.58-8.02-5.81-13.77-5.14-4.29.5-3.98-3.11-2.31-5.41,3.38-4.66,3.27-9.05.75-13.96-1.4-2.73-1.3-5.31,3.52-5.46Z"/>
  <path class="cls-10" d="M383.8,94.21c.05,2.27-.92,3.54-2.69,4.06-10.78,3.2-20.78,7.78-29.05,15.7-1.76,1.68-4.07,1.45-5.72-.59-1.52-1.87-1.11-3.75.47-5.37,8.46-8.69,18.64-14.34,30.49-16.77,2.65-.54,5.88-.8,6.5,2.97Z"/>
  <path class="cls-19" d="M223.26,197.17c-9.95,3.9-20.06,2.07-30.13.79-5.32-.68-10.6-1.69-15.89-2.55,1.55-1.93,3.89-2.28,6.03-3.05,11.4.26,22.74,1.89,34.17,1.27,6.9-.38,13.77-1.76,20.73-.69,1.01,1.5.37,2.65-1.06,3.07-4.52,1.31-9.05,2.91-13.84,1.16Z"/>
  <path class="cls-23" d="M223.26,197.17c4.07-.61,8.13-1.24,12.21-1.81,1.37-.19,2.65-.37,2.88-2.08,3.52-2.58,7.51-3.82,11.82-4.16.85,8.76-6.21,5.18-10.57,6.52,3.12,2.69,6.49,1,9.52,1.44,2.46.36,5.39-.94,7.06,2.08-9.37.25-18.74.55-28.12.71-1.97.03-3.97-.44-4.81-2.7Z"/>
  <path class="cls-26" d="M182.31,193.26c-.92,2.54-3.34,1.53-5.07,2.15-3.54-.02-7.09-.04-10.63-.06,1.31-1.44,2.62-2.88,3.93-4.32,4.44-2.01,8.33-1.07,11.78,2.22Z"/>
  <path class="cls-22" d="M312.47,80.83c6.8,17.73,9.17,36.96,18.4,53.9,2.55,4.68,3.09,10.08,1.32,15.4-1.52-.12-2.26-1.31-3.03-2.36-6.82-9.3-16.46-15.3-25.61-21.83-7-4.99-14.59-6.07-22.46-1.75-.73.4-1.55.59-2.4.58-2.8-.4-5.53.21-8.28.58-3.76.51-7.19-.03-9.61-3.38-1.97-4.97-1.23-6.36,3.69-6.98,1.74-.22,3.66.27,5.18-1.11-4.85-4.66-16.78-4.34-23.44-.53-.87.5-1.74,1.12-1.74,2.24,0,1.44,1.18,1.84,2.28,2.23,3.06,1.09,6.52,1.38,8.66,4.33-.07,2.54-1.46,3.92-3.86,4.42-6.06-2.66-11.51-6.48-17.74-8.9-16.79-6.52-33.84-7.37-51.26-3.34-2.38.55-4.78,1.65-7.24.24-1.83-5.21-1.78-10.92-4.24-15.96,1.37-2.21,3.84-1.54,5.81-2.14,3.15-.97,5.86-2.26,6.72-5.86.81-3.39-.89-5.73-3.11-7.89-2.03-1.98-4.29-3.67-6.9-4.8-4-1.73-5.54-.8-5.88,3.5-.3,3.72.42,7.25,2.01,10.63.76,1.61,1.83,3.23,1,5.18-3.12,2.58-6.72-.18-9.97.91-.39.13-1.37-.28-1.07.71.07.24.77.45.88.96.03.15-.01.33-.02.49-.93.93-2.07.96-3.26.77-2.85-.67-3.25,1.71-4.19,3.4-2.42,9.72-5.33,12.26-13.44,11.75-.98-.23-1.87-.69-2.64-1.31-8.69-7.05-17.84-6.38-27.38-1.89-6.78,3.19-12.97,7.18-18.64,12.06-1.83,1.57-3.54,3.58-6.36,3.34-1.16-3.96-.45-7.73,2.06-10.83,6.47-8,10.59-17.21,14.32-26.65,3.3-8.37,7.26-16.37,12.49-23.71.9-3.63,4.26-5.82,5.44-9.29,9.67-8.3,17.93-18.09,27.64-26.36,4.88-.46,9.17-2.18,12.51-5.92,1.28-.79,2.66-1.36,4.09-1.82,6.11-1.47,11.78-4.62,18.23-4.77,23.72-4.7,47.02-3.75,69.72,5.25,6.57,1.39,11.89,5.74,18.21,7.73,1.06.51,2.11,1.03,3.08,1.71,2.66,3.85,6.48,6.35,10.25,8.93,8.66,9.07,16.29,19.05,24.74,28.3.66,3.8,4.1,6.18,5.05,9.84Z"/>
  <path class="cls-16" d="M175.29,114.44c11.97-2.59,23.89-4.92,36.32-3.55,14.81,1.63,28.2,6.64,40.43,15.04,12.74,5.11,26.49,19.97,24.33,35.05-.17,1.18-.4,2.29-1.29,3.15-3.38,1.32-6.78,2.62-10.15,3.97-9.46,3.8-14.23,10.92-14.77,21.02-3.7,2.07-7.6,3.57-11.82,4.16-13.57,1.84-27.19,2.48-40.85,1.48-5.07-.37-10.12-.99-15.18-1.5-3.89-.93-7.65-2.55-11.78-2.23-.95-1.31-2.7-1.99-2.99-3.81-2.58-15.99-13.89-21.26-28.09-23-.33-.04-.66-.07-.99-.1-4.36-4.68-4.81-10.3-3.36-16.08,3-11.9,11.27-19.47,21.48-25.29,1.43-.82,2.91-1.56,4.43-2.18,5.36-.64,9.74-3.55,14.27-6.14Z"/>
  <path class="cls-9" d="M278.89,123.93c9.36-5.7,18.32-4.46,26.77,1.88,9.63,7.23,20.14,13.54,26.53,24.32-3.26,12.55-11.97,20.6-22.52,27-3.5,2.12-5.89.07-7.67-2.95-.61-1-1.1-2.07-1.12-3.25-.29-16.02-10.08-26.72-20.63-36.98-.94-.92-2.12-1.59-3.02-2.56-2.96-3.22-2.49-5.29,1.66-7.46Z"/>
  <path class="cls-5" d="M84.67,128.42c8.19-6.16,15.84-13.05,25.5-17.11,10.77-4.53,20.6-4.24,29.41,4.18,3.21,4.07-.44,5.66-2.89,7.29-6.1,4.07-11.94,8.36-16.66,14.07-5.38,6.51-9.33,13.68-11.37,21.94-.54,2.19-.44,5.26-3.97,5.41-8.46-7.27-16.06-15.18-19.62-26.14-1.04-3.19-1.84-6.36-.39-9.64Z"/>
  <path class="cls-4" d="M159.55,26.2c-2.97,4.78-7.39,6.51-12.83,6.1-5.52.05-10.51-2.59-15.99-2.99-7.56-.55-10.35,1.54-10.72,9.2-.18,3.63-.23,7.28.5,10.88.6,2.98.5,5.92-.5,8.8-1.7,3.34-3.42,6.68-6.48,9.04-3.5.29-5.24-1.63-5.65-4.84-2.12-16.59-3.59-33.18.34-49.76.51-2.17,1.36-3.52,3.34-4.26,4.94-1.61,9.96-1.63,15.02-.7,9.58,1.76,19,4.05,27.66,8.75,1.38,3.47,3.66,6.45,5.32,9.77Z"/>
  <path class="cls-33" d="M104.68,164.2c1.52-.43,1.86-1.61,2.14-3.01,3.63-17.99,14.45-30.63,29.79-39.8,2.45-1.46,3.87-2.98,2.97-5.91,8.8.62,11.25-5.39,12.82-12.32,1.7,1.52,1.41,3.6,1.4,5.53-.01,4.83,1.28,8.76,6.32,10.53.9.31,1.8.9,1.42,2.18-4.95,3.22-10.35,5.71-14.78,9.78-10.51,9.63-13.44,20.94-8.3,32.97-6.19,1.64-12.42,3.18-18.16,6.13-3.13,1.61-5.75.36-8.31-1.19-2.5-1.52-4.88-3.24-7.31-4.87Z"/>
  <path class="cls-24" d="M282.28,43.5c-3.87-2.45-8.23-4.37-10.05-9.1,3.65-3.15,5.3-8.23,10.02-10.35,11.85-2.34,23.7-4.79,35.81-1.71,4.58.35,6.04,3.31,6.25,7.4.86,16.74-2.19,32.92-6.91,48.87-.81,2.72-2.48,3.27-4.93,2.22-2.78-2.59-5.6-5.15-5.78-9.35-.91-2.09.3-3.84.89-5.7,1.14-3.61,2.77-7.08,3.05-10.94.68-9.47-4.46-14.76-13.89-14.2-3.3.2-6.52.92-9.68,1.88-1.57.47-3.06,1.29-4.78.97Z"/>
  <path class="cls-29" d="M278.89,123.93c-3.77,3.1-2.67,5.22.77,8.1,10.29,8.63,18.99,18.52,21.9,32.27.69,3.28.87,6.57.45,9.89-7.84-6.39-16.46-10.71-26.92-10.07,1.94-14.28-4.85-24.36-15.57-32.55-2.48-1.89-4.98-3.76-7.47-5.64.93-1.34,2.79-1.89,3.14-3.72,1.85-1.61,3.94-1.89,6.21-1.08,2.79,3.43,6.39,3.64,10.31,2.63,2.41-.62,4.82-1.15,7.18.17Z"/>
  <path class="cls-7" d="M141.99,196.12c-4.87.87-9.5-1.66-14.4-.17-3.52,1.06-6.91.38-8.87-3.5-2.08-4.12-2.87-8.3.19-12.13,10.4-13,25.05-12.49,36.33-4.56,4.07,2.86,6.71,6.97,6.13,12.36-.53,4.99-2.71,7.03-7.66,6.97-2.06-.02-3.9.76-5.85.98-1.97.22-3.98.05-5.87.05Z"/>
  <path class="cls-14" d="M258.16,183.14c5.17-10.77,15.66-15.45,26.78-11.91,2.05.65,4.15,1.23,6.1,2.13,6.12,2.82,10.43,6.98,9.02,15.81-3.15,2.44-6.99,1.57-10.5,2.03-7.85,1.03-15.8.85-23.67.18-6.22-.53-8.21-3.01-7.72-8.23Z"/>
  <path class="cls-30" d="M154.22,17.33c-13.69-5.52-27.62-9.86-42.65-8.96,3.45-2.85,7.92-3.1,11.77-2.88,18.49,1.04,37.12,1.79,54.04,10.83,1.44.77,3.14,1.19,4.07,2.74-5.75,2.82-12.04,3.97-18.07,5.93-.11-.12-.31-.24-.31-.37-.19-5.79-3.6-7.65-8.83-7.29Z"/>
  <path class="cls-2" d="M318.06,22.34c-12.4-.16-24.71.76-36.93,2.91-1,.07-1.96-.17-2.93-.31-5.08-.76-6.45.14-7.72,5.11-.29,1.12-.36,2.29-1.3,3.13-6.21-2.53-12.27-5.36-18.01-8.85,3.17-.23,5.06-3.19,7.96-3.86,19.8-4.55,39.49-5.07,58.94,1.88Z"/>
  <path class="cls-15" d="M258.16,183.14c.62,5.91,4.93,6.78,9.63,7.02,10.78.56,21.51-.62,32.26-.99-.36,4.99-3.7,6.85-8.01,6.92-5.41.08-10.85.6-16.24-.7-3.63-.88-7.14.78-10.77.87-3.51.09-6.13-.83-7.76-4-1.64-3.21-1.76-6.3.88-9.11Z"/>
  <path class="cls-6" d="M111.5,184.14c-1.69,2.59-10.08,4.41-12.8,2.75-1.81-1.1-.84-2.26.09-3.22,3.76-3.89,7.68-7.47,13.74-6.47-.35,2.31-.69,4.63-1.04,6.94Z"/>
  <path class="cls-8" d="M282.28,43.5c5.71-3.43,11.99-4.65,18.49-4.07,8.56.76,12.98,8,10.97,17.58-1.05,5.02-2.93,9.79-5.03,14.47-8.8-8.75-16.31-18.63-24.43-27.98Z"/>
  <path class="cls-12" d="M120.01,58.19c-.94-7.24-2.01-14.48-1.3-21.81.69-7.16,3.88-9.67,10.91-8.76,5.91.77,11.75,1.8,17.1,4.67-8.5,9.06-17.36,17.73-26.71,25.9Z"/>
  <path class="cls-21" d="M161.55,121.39c-10.26-2.44-9.29-10.55-9.15-18.23.7-2.08,1.77-3.67,4.32-3.33.19.79.71,1.44.89,2.25.31,1.38.29,3.05,2.23,3.33.69.1,1.3-.18,1.63-.82.88-1.7-.47-2.7-1.26-3.87-.18-.27-.27-.58-.28-.91-.74-.28-1.92-.38-2.13-.88-.34-.83.66-1.33,1.38-1.73,3.78-2.1,7.38.5,11.08.46.64-.28,1.04.02,1.34.56,3.37,4.92,4.47,10.35,3.68,16.22-3.55,4.38-8.03,6.89-13.75,6.95Z"/>
  <path class="cls-25" d="M171.61,98.22c-.45-.19-.9-.38-1.34-.56-.88-5.33-4.37-9.9-4.07-15.64.34-6.61,2.51-8.16,8.32-5.03,2.46,1.32,4.84,2.89,6.98,4.68,3.15,2.63,4.41,5.96,3.26,10.19-1.19,4.37-4.54,5.31-8.25,5.88-1.62.25-3.26.33-4.89.49Z"/>
  <path class="cls-18" d="M247.44,102.35c-3.68.09-6.53-.89-8.24-4.02-1.83-3.35-1-6.46,1.24-9.22,3.35-4.14,7.74-6.71,12.97-7.59,2.7-.46,5.34.34,5.23,3.64-.17,4.98-1.24,9.88-4.08,14.1-1.7,2.54-4.47,3.25-7.13,3.09Z"/>
  <path class="cls-17" d="M261.4,121.13c-1.93,1.18-4.06,1.16-6.21,1.08-3.11-1.01-5.9-2.94-9.29-3.21-1.73-.14-3.3-.9-3.52-2.88-.22-1.93,1.13-3.09,2.67-3.79,9.42-4.31,18.67-4.8,27.86,1.35-2.29,2.95-5.31,2.76-8.2,2.62-3.9-.19-5.23,1.14-3.31,4.83Z"/>
  <path class="cls-1" d="M269.17,33.17c-.2-3.57-.36-7.44,3.25-9.29,2.83-1.45,6.14-1.26,8.7,1.36-3.3,2.72-3.69,8.29-8.89,9.15-1.02-.41-2.04-.82-3.06-1.23Z"/>
  <path class="cls-3" d="M154.22,17.33c8.36-2.97,9.36-2.13,9.15,7.66-1.27.4-2.54.8-3.81,1.2-3.12-2.14-6.64-4.05-5.34-8.86Z"/>
  <path class="cls-28" d="M159.94,99.8c3.21.36,4.1,2.37,3.53,5.23-.44,2.24-2.1,2.7-4.12,2.41-3.18-.46-3.22-2.76-3.01-5.18.07-.81.24-1.62.37-2.43,1.08,0,2.15-.02,3.22-.02Z"/>
  <path class="cls-35" d="M202.28,166.35c-3.88-.56-5.35-3.68-6.66-6.69-2.93-6.7-6.39-13.07-10.94-18.92,1.71-1.16,2.74.4,3.87.95,7.76,3.76,11.22,3.23,17.05-3.14,1.66-1.81,2.84-3.14,5.03-.52,7.3,8.71,10.24,9.26,20.23,4.21.88-.44,1.75-.89,3.4-1.73-1.36,3.61-3.68,5.51-5.96,7.42-2.29,1.91-4.73,3.65-6.38,6.22-1.46,1.19-2.48.03-3.47-.75-1.57-1.23-2.89-2.75-4.3-4.15-5.36-5.3-10.18-5.21-15.22.3-2.19,2.39-.94,4.6.37,6.8,1.46,2.65,3.83,4.76,4.61,7.81-.11,1.06-.57,1.85-1.63,2.2Z"/>
  <path class="cls-13" d="M208.55,121.21c.33,0,.66,0,.99,0,6.59.03,9.49,1.87,9.57,6.09.08,4.2-3.71,6.71-9.93,6.38-3.14-.17-6.38-.44-8.61-3.09-1.64-1.94-1.69-4.38-.87-6.6.76-2.06,2.77-2.71,4.88-2.76,1.32-.03,2.65,0,3.97-.01Z"/>
  <path class="cls-32" d="M202.28,166.35c.37-.76.73-1.52,1.1-2.28,1.27-1.34,3.06-1.05,4.61-1.48,2.67-.74,4.77-2.18,6.15-4.63,2-3.58,1.28-5.42-2.62-6.63-7.06-2.18-9.46-1.11-13.21,5.86-1.57-2.89-3.73-5.96-.24-8.77,7.52-6.05,10.36-6.24,15.03-1.99,2.89,2.63,4.91,6.28,8.84,7.72-1.6,2.88-2.99,5.9-4.84,8.6-4.09,5.97-7.99,6.82-14.81,3.61Z"/>
  <path class="cls-11" d="M198.3,157.19c-.16-6.2,1.72-8.17,7.65-8.04.66.01,1.35-.07,1.97.11,3.36,1.01,8.29-.31,8.91,5.02.46,3.94-4.61,9.15-9.04,9.85-1.43.23-2.94-.02-4.42-.05-1.69-2.3-3.38-4.59-5.07-6.89Z"/>
</svg>