<?xml version="1.0" encoding="UTF-8"?>
<svg id="Capa_1" data-name="Capa 1" xmlns="http://www.w3.org/2000/svg" viewBox="0 0 405.14 254.58">
  <defs>
    <style>
      .cls-1 {
        fill: #a7b6d8;
      }

      .cls-1, .cls-2, .cls-3, .cls-4, .cls-5, .cls-6, .cls-7, .cls-8, .cls-9, .cls-10, .cls-11, .cls-12, .cls-13, .cls-14, .cls-15, .cls-16, .cls-17, .cls-18 {
        stroke-width: 0px;
      }

      .cls-2 {
        fill: #827f7e;
      }

      .cls-3 {
        fill: #797675;
      }

      .cls-4 {
        fill: #4d4948;
      }

      .cls-5 {
        fill: #868283;
      }

      .cls-6 {
        fill: #777573;
      }

      .cls-7 {
        fill: #4c4c4c;
      }

      .cls-8 {
        fill: #f3f3f1;
      }

      .cls-9 {
        fill: #81807e;
      }

      .cls-10 {
        fill: #767472;
      }

      .cls-11 {
        fill: #a8b6d8;
      }

      .cls-12 {
        fill: #858382;
      }

      .cls-13 {
        fill: #4c4b4b;
      }

      .cls-14 {
        fill: #6d6b69;
      }

      .cls-15 {
        fill: #e8e8e6;
      }

      .cls-16 {
        fill: #4d4a49;
      }

      .cls-17 {
        fill: #dededc;
      }

      .cls-18 {
        fill: #fefefe;
      }
    </style>
  </defs>
  <path class="cls-17" d="M46.41,103.49c3.77-1.82,2.71-5.85,4.03-8.8,6.22-.55,7.16-5.93,8.99-10.24.91-2.15,1.63-4.45,2.56-6.63.36-.86.99-1.73,2.15-.78,4.45,5.7,8.06,12.33,16.27,13.62,1.71.27,3.08,1.66,4.3,2.93,2.79,2.87,6.14,4.44,10.12,4.86,5.1.53,8.85,4.18,13.42,6.02,8.38,3.37,16.85,5.84,25.96,5.45,6.66-.28,12.68,2.71,19.13,3.68,10.52,1.58,20.95,1.14,31.44.66,1.74-.08,3.48-.56,5.23-.47,16.34.92,31.21-4.81,46.41-9.59,6.52-2.05,10.81-6.28,15.51-10.45,5-4.43,5.18-4.38,8.37,1.63.37.7.84,1.35,1.18,2.08-.47,8.09,3.49,15.65,2.77,23.81-.3,3.36,1.83,5.49,4.7,7.1,6.11,3.45,10.37,8.21,10.65,15.71.2,5.32,4.2,9.17,5.69,14.02-.1,2.44-2.26,3.31-3.65,4.75-1.57,1.62-2.3,3.38-1.56,5.63.72,2.18,2.48,2.63,4.45,2.99,2.62.48,6.35-.61,6.83,3.51.45,3.84-3.54,3.4-5.52,4.9-3.43,2.6-7.73,2.87-11.62,4.12-6.38,2.06-12.23,5.34-18.56,7.48-3.13,1.13-4.98.31-5.01-3.28.64-2.43.96-4.96-1.6-6.37-2.35-1.29-4.7.29-5.98,1.84-4.27,5.17-9.77,9.26-12.21,16.08-1.66,4.65-4.65,9.19-10.73,9.53-.64.04-1.51.05-1.8.51-3.08,4.89-8.99,5.75-13.03,9.26-8.09,7.04-16.72,13.19-27.22,16.13-1.88.53-3.62,1.16-5.2,2.29-.91.64-1.92,1.47-3.01,1.35-10-1.14-19.11,3.53-28.81,4.31-7.13.58-13.56-1.33-18.74-6.19-3.3-3.1-2.85-7.5-2.27-11.69,1.41-10.19,5.71-19.06,12.12-26.99.51-.63.83-1.36.99-2.15,2-9.73,7.54-17.56,13.54-25.14.75-.94,2.31-1.75,1.18-3.16-1.03-1.29-2.38-.42-3.46.2-6.28,3.66-10.81,9.15-13.6,15.57-1.58,3.63-4.39,6.57-5.31,10.56-.45,1.97-2.33,2-3.72.45-1.67-1.88-3.68-2.3-6.06-1.9-1.44.24-2.88-.06-4.17-.76-6.94-3.76-14.57-4.12-22.2-4.68-2.69-.2-4.1,1.28-5.55,3.01-2.25,1.09-4.6,1.7-7.13,1.48-3.16-.75-4.94-3.63-7.72-4.97-3.45-2.81-6.82-.45-10.22.18-8.17,1-15.81-.59-22.92-4.73-.41-.24-.9-.32-1.36-.43-5.56-1.26-6.03-2.24-2.8-7.28,2.47-3.85,4.34-8.2,8.31-10.95,1.29-.89,1.77-2.2,1.32-3.78-1.06-3.66.53-6.29,3.53-8.05,4.53-2.66,5.52-7.1,5.2-11.54-.35-4.92.39-9.77,0-14.67-.25-3.14.39-6.29,1.04-9.44,1.03-4.95.96-9.88-4.59-12.61Z"/>
  <path class="cls-15" d="M260.95,97.84c-.14-.07-.28-.15-.43-.22-2.65-1.18-1.43-6.31-4.52-5.75-2.06.37-4.48,3.11-5.91,5.13-6.05,8.49-15.84,9.33-24.41,12.11-12.17,3.95-24.62,6.52-37.78,6.33-8.17-.11-16.51.61-24.75.48-7.37-.12-14.77-1.05-21.73-3.82-2.15-.86-4.34-.92-6.57-.85-13.29.45-25.29-3.5-36.34-10.64-1.17-.76-2.35-.82-3.63-.87-4.15-.15-7.76-1.52-10.56-4.73-1.94-2.23-4.31-3.44-7.28-4.15-4.4-1.06-8.26-3.15-9.68-8.16-.66-2.31-5.28-2.4-3.78-6.19-.39-2.97,1.53-4.72,3.48-6.37,2.4-2.04,4-4.35,4.25-7.67.22-3,1.97-5.52,4.43-7.08,6.57-4.17,11.41-10.07,16.43-15.81,1.01-1.16,2.07-1.91,3.58-2.09,1.31-.16,2.55-.62,3.29-1.74,3.38-5.12,8.85-6.47,14.22-7.95,1.91-.52,3.74-1.07,4.66-2.96,1.35-2.78,3.59-4.39,6.48-5.21,1.77-.5,2.88-1.94,4.31-2.92,1.57-1.75,3.24-3.21,5.84-2.22,5.78.21,11.46,2.69,17.35.44,4.15-1.58,8.47-.47,12.65-.58,5.06-.13,10.33-.75,15.52-1.1.64-.04-.13-.17.46-.05,8.15,1.67,16.71-.14,24.67,2.86,3.16,1.19,6.62.92,9.73,2.26,2.74,1.02,5.62,1.47,8.47,2.06,2.26.85,4.17,2.23,5.85,3.94.78.79,1.45,1.94,2.46,2.18,6.3,1.51,10.42,6.78,16.24,9.21,3.69,1.54,6.72,4.64,10.96,5.13,1.08,4.89,4.4,6.49,9.05,6.12,10.52,3.98,10.68,4.81,5.08,14.52-2.02,3.51-5.52,5.76-7.18,9.45-.9,8.64-3.44,17-4.2,25.65-.04.48-.37.87-.7,1.21Z"/>
  <path class="cls-4" d="M264.96,70.1c3.01-4.34,6.99-7.94,9.18-12.96,1.37-3.14,2.93-5.57-1.91-6.74-1.65-.4-2.68-2.27-4.6-2.28-3.76-1.14-6.03-4.17-8.59-6.83-3.42.04-6.93.47-8.82-3.57-.35-.74-1.82-1.01-2.82-1.38-1.16-.42-3.03-.35-3.45-1.12-3.43-6.38-12.41-4.55-15.88-10.95-.78-1.43-3.04-2.06-4.62-3.06-2.76-.89-5.64-1.21-8.45-1.85-4.64-1.14-9.44-1.42-13.87-3.68-2.34-1.19-5.33-.82-7.95-.03-.94.28-1.98.79-2.72.34-4.95-2.98-10.41-1.16-15.6-1.73-2.54-.28-5.22-.65-7.79,1.18-2.08,1.48-4.77,1.56-6.86-.73-.61-.66-1.61-1.96-2.25-1.03-2.61,3.79-6.9,2.21-10.24,3.14-4.28,1.19-8.99-.32-13.19-2.33.26-5.63,2.05-7.55,7.92-7.93,2.84-.18,5.35-.55,6.77-3.42,1.77-3.6,4.78-.65,7.12-1.29,2.77-.73,5.42-.77,7.78,1.18,4.04,1.59,7.61-.64,11.28-1.58,2.74-.7,4.8-1.18,7.17,1.23,2.07,2.09,5.18.38,7.68.07,3.55-.44,6.52-.11,9.31,2.22,1.62,1.35,4.04.76,5.62,1.33,7.31,2.61,15.21-1.39,22.25,2.39,3.28,1.1,6.73,1.78,9.62,3.86,1.08,2.91,3.04,4.58,6.28,4.38,2.7-.16,4.89.32,6.23,3.17,1.23,2.59,3.52,4.01,6.55,3.97,2.71-.04,5.13,1.25,6.85,2.94,2.49,2.46,5.07,3.96,8.54,4.71,2.97.64,3.88,3.84,3.86,6.48-.03,3.6,1.65,5.97,4.26,8.4,5.4-10.52,12.92-19.34,20.4-28.17,9.84-11.63,19.84-12.52,30.24-.49,4.07,4.7,8.14,9.47,10.86,15.09,2.46,5.09,6.63,7.78,11.75,8.64,4.14.69,8.15,1.81,12.25,2.58,1.26.24,2.2.61,2.58,1.7,1.14,3.2,3.38,4.04,6.64,4.24,3.21.19,4.07,3.87,5.33,6.02,1.95,3.33,4.62,5.33,7.61,7.27.78,1.73,1.21,3.3,3.31,4.53,3,1.76,3,5.48,2.6,8.83,4.9,2.89,5.6,9.21,10.22,12.42,2.21,1.53,1.79,4.24,1.48,6.56-1.02,7.62-.88,15.19-.64,22.88.2,6.66.25,13.65-1.62,20.3-.21,3.08-1.58,5.59-3.77,7.7-1.65,4.51-6.95,7.36-5.94,13.13.18,1.02-1.04,1.66-1.85,1.94-3.42,1.2-5.09,4-6.73,6.88-1.66,5.26-3.16,10.63-8.32,13.75-7.31,4.41-13.5,10.58-21.79,13.45-4.81,1.67-9.47,3.69-14.75,2.97-1.46-.2-2.82.36-4.08,1.11-1.1.66-2.41,1.65-3.54,1.08-4.65-2.34-8.52-.54-12.43,1.8-1.09.65-2.6.83-3.72.27-8.29-4.11-17.62-3.21-26.26-5.56-.46-.12-1.03-.11-1.36-.4-5.4-4.82-11.44-3.28-17.57-1.99-3.89.82-7.92.47-11.87.18-2.59-.19-4.71-1.23-3.39-4.57,2.6-3.48,7.06-2.81,10.5-4.61,4.94-2.6,10.3-4.61,16-5.49,2.74-.42,4.67-3.19,7.66-3.59,1.2-.16,1.21-1.3.98-2.3-.26-1.16-.65-2.06-2.19-1.94-1.4.11-2.84-.21-4.25-.16-2.19.08-4.27,0-5.01-2.57-.75-2.6-1.52-5.05,1.14-7.41,1.65-1.47,3.41-2.82,5.04-4.32,1.09-1.71,3.27-1.06,4.69-2.2.02-1.35-1.31-1.08-2-1.53-3.61-2.38-3.84-6.42-.45-9.08,1.16-.9,2.53-1.56,3.94-1.61,7.94-.29,14.98-3.68,22.25-6.29.3-.11.68-.37.9-.25,5.77,3.03,9.42-1.86,13.77-3.81,4.64-2.07,8.49-5.57,13.13-7.73,1.75-.81,2.88-2.49,3.5-4.39,2.28-5.56,4.75-11.09,6.89-16.64,1.98-5.11,3.28-11.33-.58-16.79-1.38-1.96-2.68-4.09-3.18-6.38-1.08-5-5.5-7.2-8.38-10.67-1.06-1.28-2.57-1.05-3.99-.54-2.14.77-4.34.95-6.59.74-3.11-.56-6.15-3.37-9.37-.28-3.5,2.01-6.54,1.46-9.51-1.29-4.62-4.3-10.74-5.25-16.53-6.82-3.32-.9-6.36-1.81-7.1-5.94-.41-2.27-3.04-3.1-4.2-4.91-4.34,5.06-6.49,11.12-8.72,17.18-1,2.72-1.9,5.9-5.57,6.53-3.32-.58-4.65-2.26-3.1-5.55Z"/>
  <path class="cls-11" d="M255.25,190.74c.32,1.73.44,3.17,3.03,3.32,5.91.34,11.88.88,17.47-1.15,3.6-1.31,6.61-.92,9.52.92,6.38,4.02,13.59,4.23,20.71,4.83,2.56.21,5.1.15,7.21,1.91,2.95,2.46,5.84,2.06,8.66-.24,2.51-2.04,5.03-3.29,8.11-.93.67.51,1.98.86,2.68.56,8.46-3.6,18.55-1.92,26.24-7.38,6.83-4.85,14.75-8.44,20.22-14.82,2.07-2.42,3.09-6.26,5.23-9.1-.02,1.88.91,2.55,2.76,3.08,12.4,3.58,12.71,17.34,4.78,24.55-4.47,4.06-9.64,6.85-15.27,8.1-6.45,1.44-12.14,5.24-18.69,5.85-5.72.53-11.19,3.19-16.46,3.42-6.53.28-12.14,3.49-18.74,3.39-6.57-.1-13.14,3.1-19.78,3.42-8.57.42-17.11,2.68-25.78.96-1.37-.27-2.97-.3-4.26.15-6.03,2.06-12.33,1.1-18.42,1.93-6.35.87-12.89.57-19.05,2.73-.88.31-1.91.71-2.44,1.4-3.25,4.18-8.81,5-12.39,8.69-.61.63-1.7,1.23-2.5,1.14-7.09-.76-11.96,4.38-17.96,6.45-6.78,2.33-13.31,5.54-20.66,6.27-3.85.38-7.64,1.71-11.38,2.85-2.31.7-4.48,1.74-6.72-.02,8.42-4.66,17.21-8.63,26.23-11.83,3.29-1.17,7.37-.93,9.95-3.57,7.81-8,18.58-12.54,25.27-21.79,1.71-2.36,3.91-4.04,6.28-5.73,3.29-2.35,6.6-4.6,8.84-8.42,2.02-3.44,5.72-5.88,8.81-8.48,1.85-1.56,1.43-5.01,4.62-5.07-.05,2.84,1.32,3.58,3.85,2.59Z"/>
  <path class="cls-4" d="M69.31,186.02c2.65,1,4.7,2.82,6.58,4.86,1.85,4.38-.05,7.49-4.73,8.44-7.14,1.45-14.25.49-21.35,0-8.45-.58-16.35-3.82-24.56-5.62-4.24-.93-8.71-8.5-8.54-13.5-.37-2.75-3.01-2.77-4.71-3.92-3.51-.92-4.99-3.87-6.66-6.64-2.23-.93-3.53-2.59-3.8-4.99-.5-4.5-3.64-9.67.86-13.22,4.19-3.3,6.54-7.91,10.19-11.47,1.75-1.71,2.73-3.2,1.2-5.67-1.5-2.43-1.46-4.89,1.46-6.48,1.43-.78,2.33-1.71,1.39-3.41-1.68-3.05.1-4.93,2.06-7.04,6.07-6.52,13.51-9.94,22.28-11.06,1.9-.24,3.63-1.85,5.43-2.82,4.04.83,6.18,1.98,6.25,7.42.07,5.39-3.19,10.24-1.58,15.54,1.3,4.26-1.13,8.58.6,12.97,1.26,3.18-3.17,11.03-6.22,13.32-2.31,1.73-5.99,3.37-2.39,7.34,1.25,1.37.19,2.52-1.07,3.54-4.98,4.07-9.07,10.06-11.79,17.23,4.69-2.03,8.14,1.22,11.61,2.73,4.67,2.04,8.99,2.73,13.84,1.85,1.01-.18,2.15.39,3.23.61,3.48.85,6.95-.92,10.42-.02Z"/>
  <path class="cls-16" d="M251.41,188.15c-2.43,5.03-6.01,9-10.74,11.99-.77.49-1.65,1.23-1.9,2.03-1.69,5.31-6.36,7.36-10.62,9.78-1.51.86-2.33,2.13-3.24,3.38-3.84,5.28-9.44,8.7-13.87,13.21-3.14,3.2-9.15,3.07-9.92,8.7-4.29.35-5.98,5.8-11.55,4.9-3.51-.57-7.91,2.07-11.4,4.14-5.3,3.14-11.03,4.87-16.77,6.75-4.08.11-8.04-.15-12.18,1.26-3.07,1.05-6.91-1.04-10.36-1.61-4.14-.68-8.41-.15-12.44-1.44-.59-.19-1.76-.14-1.79-.33-.71-5.06-6.75-4.87-8.52-8.74-.62-1.36-1.55-1.96-2.78-2.31-2.27-.64-2.72-2.86-2.14-4.19,1.72-3.96.85-8.61,3.47-12.26.01-3.54.96-6.85,2.44-10.04.6-1.29,1.23-2.58,1.5-4,1-5.33-.56-7.32-5.83-6.7-3.67.43-6.44-.56-9.72-2.32-4.2-2.25-8.82-4.01-13.41-5.58-2.68-.92-5.02-1.97-5.71-5.03-.1-2.8,1.14-4.24,4.04-3.86,8.17,1.07,16.73.41,24.07,5.28,1.04.69,2.19.63,3.23.31,3.8-1.16,6.58-.13,8.28,4.27,3.51-7.8,6.79-14.97,11.62-21.3,2.81-3.69,6.46-6.22,10.25-8.69,2.16-1.41,3.31.35,4.37,1.56,1.12,1.29.67,2.49-.84,3.54-3.27,2.27-4.86,5.88-7.15,8.92-2.41,3.19-2.1,7.82-5.87,10.02-.38.22-.85.77-.81,1.12.88,8.2-5.73,12.87-9.29,18.82-2.38,3.98-2.57,8.2-3.54,12.24-.59,2.46-1.76,5.05-1.25,8.13.93,5.62,2.94,8.77,8.59,9.35,1.95.2,2.58,1.89,4.42,2.28,5.04,1.08,9.81.05,14.44-1.28,3.25-.93,6.56-.51,9.81-1.59,3.48-1.15,7.17-4.93,11.17-.72.08.08,1.18-.81,1.81-1.24,3.97-2.7,8.36-4.23,13.11-4.87,1.04-.14,2.12-.73,2.97-1.38,5.98-4.59,12.91-7.93,18.01-13.65,1.27-1.42,2.9-1.97,4.6-2.33,1.62-.34,3.56-.85,4.18-2.08,1.8-3.59,4.28-4.95,8.3-4.66,2.18.16,8-7.68,7.85-10.19-.11-1.95.21-3.82,1.87-4.57,3.45-1.55,4.94-4.74,6.97-7.45,1.58-2.11,3.36-3.84,5.88-4.66,1.8-.58,3.7-2.69,5.47-.1,1.48,2.18,3.52,4.42.95,7.19Z"/>
  <path class="cls-1" d="M83.91,189.75c2.28,2.22,5.59,2.93,7.89,4.46,4.33,2.89,10.09,2.21,13.62,6.38,1.15,1.36,2.79,2.08,4.71,1.11.69-.35,1.5-.55,2.27-.63,6.38-.67,9.37,2.97,7.32,9.21-1.47,4.45-3.37,8.77-5.07,13.14-.45-.62-.92-1.78-1.35-1.77-6.57.24-12.29-3.98-19.03-3.29-5.16.53-10.65-2.09-15.25-1.7-9.24.78-16.89-3.66-25.19-5.39-5.76-1.2-12.77-.99-17.78-6.2-2.19-2.27-6.52-1.07-9.7-2.79-1.87-1.01-3.61-1.8-4.64-3.67-1.16-2.1-2.56-4-4.4-5.56-4.51-3.83-4.71-7.98-.6-12.86,1.29,2.52,2.89,4.93,3.8,7.58,1.74,5.03,6.62,5.87,10.25,6.09,6.7.4,12.28,4.38,19.09,4.33,7.4-.05,14.86.77,22.2-.22,3.32-.45,4.48-3.68,3.84-7.11,2.67-.38,5.35-.75,8.02-1.13Z"/>
  <path class="cls-13" d="M128.69,16.73c-4.24,4.63-9.11,8.78-14.47,11.7-4.88,2.66-11.35,2.44-14.4,8.38-.27.53-.85,1.25-1.33,1.28-7.96.58-9.65,8.66-14.88,12.51-1.97,1.45-3.62,3.39-5.89,4.49-3.27,1.57-5.4,4.54-5.38,7.72.02,3.62-1.6,5.64-3.99,7.54-2.12,1.68-3.81,3.62-4.78,6.16-2.1,5.28-3.4,10.84-6.35,15.84-1.83,3.1-3.6,4.2-6.78,2.33.11-7.96-1.54-15.9,3.21-23.56,3.71-5.99,9.02-10.89,11.71-17.53.62-1.53,2.02-2.43,3.35-3.31,2.43-1.61,4.6-3.32,4.71-6.64.03-.84.64-1.96,1.34-2.42,8.64-5.68,15.22-14.09,24.15-19.16,6.84-3.88,14.65-6.16,22.22-8.58,2.72-.87,5.33,1.43,7.56,3.24Z"/>
  <path class="cls-9" d="M393.2,76.86c-1.81-3.55-.87-8.77-6.22-10.28-.17-.05.19-2.01.31-3.09,1.88,1.31,3.2,3.19,5.15,4.58,2.72,1.93,4.41,5.53.76,8.79Z"/>
  <path class="cls-3" d="M237.06,12.57c-3.93.53-6.57-2.18-9.62-3.86,2.04-.07,4.1-.31,6.13-.15,2.3.18,3.86,1.34,3.49,4.01Z"/>
  <path class="cls-5" d="M5.33,169.65c2.22,2.21,4.44,4.42,6.66,6.64-5.08.66-6.31-2.54-6.66-6.64Z"/>
  <path class="cls-12" d="M398.86,146.71c.54-2.92,2.5-5.14,3.77-7.7,1.24,3.79,1.12,6.91-3.77,7.7Z"/>
  <path class="cls-6" d="M164.13,3.05c-2.59-.39-5.19-.79-7.78-1.18,3.67-2.8,5.55-2.51,7.78,1.18Z"/>
  <path class="cls-8" d="M346.11,121.76c-.43,3.73-3.55,5.36-6.26,6.28-5.39,1.85-8.41,8-14.77,7.79-1.77,7.04-6.39,2.24-9.89,2.88-4.35.79-9.12,2.12-13.04,4.34-2.1,1.19-3.84,1.66-5.98,1.67-2.2.01-4.3-.13-6.48.81-2.44,1.05-3.48,2.64-3.5,5.09-.03,2.93,2.47,2.87,4.34,3.49.85.28,1.76.36,2.92.58-2.2,3.19-4.96,4.12-8.32,3.65-3.71-4.41-6.72-9.24-6.87-15.15-.17-6.37-4.1-10.48-8.84-13.05-4.57-2.47-7.51-5.4-6.39-10.28,1.32-5.81-3.07-10.38-2.39-16.03.22-1.86.5-3.99.32-6-.67-3.23-.52-6.17.57-9.53,1.62-5.01,2.42-10.41,2.33-15.82-.02-.97.08-1.91,1.12-2.39-.25,2.71.68,4.52,3.65,4.74-3.51,7.99,1.08,14.82,3.49,21.78,2.88,8.32,9.95,13.39,16.58,18.63,1.29,1.02,2.89,1.3,4.47,1.53,1.76.26,3.52.69,4.83,1.9,8.71,8.07,18.77,7.24,29.13,4.51,4.76-1.26,9.32-3.19,14.16-4.25,2.83-.62,4.24.14,4.83,2.84Z"/>
  <path class="cls-14" d="M69.31,186.02c-3.47,2.06-6.95,1.71-10.42.02,3.47-1.4,6.94-4.33,10.42-.02Z"/>
  <path class="cls-10" d="M259.04,41.3c3.94.93,5.46,4.88,8.59,6.83-7.23.12-9.28-1.51-8.59-6.83Z"/>
  <path class="cls-17" d="M215,19.38c3.07-.52,5.74.73,8.45,1.85-2.98.14-5.81-.43-8.45-1.85Z"/>
  <path class="cls-18" d="M346.11,121.76c-1.17-1.48-1.97-2.38-4.55-1.74-7.49,1.87-14.51,5.6-22.32,6.06-7.44.44-14.9.51-20.73-5.48-.86-.89-1.98-1.87-3.11-2.09-12.21-2.37-19.14-11.07-24.34-21.15-2.68-5.19-4.39-11.08-5.33-17.04-.42-2.7,1.18-4.06,2.89-5.5,3.45-2.77,4.21-6.97,5.45-10.82,1.73-5.37,4.91-9.81,8.46-14.23,1.12,1.46,1.67,3.78,4.07,4.21.72.13,1.23.61,1.19,1.26-.53,7.81,6.36,5.99,10.21,7.34,5.2,1.83,10.38,2.98,14.29,7.44,1.74,1.98,4.71,1.17,7.12.12,1.79-1.56,3.75-.77,5.69-.44,1.29.22,2.49,1.4,3.9.38.8.03,1.78.38,2.36.04,7.13-4.15,10.66,1.58,14.97,5.28.88.75,1.14,1.57,1.57,2.59,1.58,3.72,2.3,7.94,5.55,10.85.55.49,1.2,1.51,1.04,2.07-1.51,5.42,1.36,11.25-2.74,16.68-2.95,3.91-3.83,9.38-5.64,14.16Z"/>
  <path class="cls-2" d="M328.99,70.1c-3.18,2.64-6.4-.72-9.59.05,3.17-4.51,6.39-.92,9.59-.05Z"/>
  <path class="cls-7" d="M305.56,116.06c-2.26-.59-2.79-2.11-2.39-4.05,1.41-6.9,3.72-13.54,5.92-20.2.85-2.58,1.94-5.03,4.16-6.79.89-.71,1.8-1.46,2.97-.77,1.09.65,1.45,1.78.94,2.9-3.79,8.27-5.14,17.26-7.79,25.86-.54,1.74-2.14,2.61-3.8,3.05Z"/>
</svg>