<?xml version="1.0" encoding="UTF-8"?>
<svg id="Capa_1" data-name="Capa 1" xmlns="http://www.w3.org/2000/svg" viewBox="0 0 441.12 403.15">
  <defs>
    <style>
      .cls-1 {
        fill: #c7e6f3;
      }

      .cls-1, .cls-2, .cls-3, .cls-4, .cls-5, .cls-6, .cls-7, .cls-8, .cls-9, .cls-10, .cls-11, .cls-12, .cls-13, .cls-14, .cls-15, .cls-16, .cls-17, .cls-18, .cls-19, .cls-20, .cls-21, .cls-22, .cls-23, .cls-24, .cls-25, .cls-26, .cls-27, .cls-28, .cls-29, .cls-30 {
        stroke-width: 0px;
      }

      .cls-2 {
        fill: #a5c4eb;
      }

      .cls-3 {
        fill: #244d6d;
      }

      .cls-4 {
        fill: #eff4f7;
      }

      .cls-5 {
        fill: #d9b2ae;
      }

      .cls-6 {
        fill: #274a6a;
      }

      .cls-7 {
        fill: #68a8c9;
      }

      .cls-8 {
        fill: #244c6b;
      }

      .cls-9 {
        fill: #aed7ee;
      }

      .cls-10 {
        fill: #afd9f1;
      }

      .cls-11 {
        fill: #6a809f;
      }

      .cls-12 {
        fill: #6c819f;
      }

      .cls-13 {
        fill: #faccc4;
      }

      .cls-14 {
        fill: #d0edf4;
      }

      .cls-15 {
        fill: #a6c3eb;
      }

      .cls-16 {
        fill: #244b6c;
      }

      .cls-17 {
        fill: #535162;
      }

      .cls-18 {
        fill: #d9d2da;
      }

      .cls-19 {
        fill: #6c7f9e;
      }

      .cls-20 {
        fill: #b2d9ee;
      }

      .cls-21 {
        fill: #69819f;
      }

      .cls-22 {
        fill: #bfe2f0;
      }

      .cls-23 {
        fill: #62a0be;
      }

      .cls-24 {
        fill: #244c6d;
      }

      .cls-25 {
        fill: #daf2f2;
      }

      .cls-26 {
        fill: #f9b29d;
      }

      .cls-27 {
        fill: #234b6c;
      }

      .cls-28 {
        fill: #d5b0ad;
      }

      .cls-29 {
        fill: #b3d8ea;
      }

      .cls-30 {
        fill: #edf4f7;
      }
    </style>
  </defs>
  <path class="cls-27" d="M300.56,331.22c3.54,12.82,6.63,25.75,8.24,38.97.97,7.98,1.47,16-1.73,23.71-4.27,10.27-8.47,10.31-17.78,8.03-15.7-3.85-30.14-11.17-44.1-19.41-10.52-6.21-21.15-12.19-30.39-20.26-4.25-3.72-9.4-2.21-14.12-2.68-7.35-.73-14.84.68-22.17-.61-9.66-1.7-19.24-3.86-28.85-5.85-4.14-.86-8.32-1.59-12.38-2.73-4.93-1.38-9.8-3.03-14.63-4.76-6.34-2.27-12.64-4.66-18.89-7.16-2.72-1.09-5.58-2.18-7.83-3.96-5.79-4.58-11.05-4.78-16.83.12-6.51,5.52-13.16,10.92-20.19,15.74-5.85,4.02-10.69,9.54-17.65,11.98-4.4,1.54-10.27.06-13.49-3.32-3.22-3.38-4.88-7.62-6.89-11.64-8.1-16.17-9.94-33.6-9.42-51.31.24-8.32,2.45-16.51,4.62-24.53,2.3-8.52,1.15-16.41-2.81-23.94-2.9-5.52-4.13-11.51-5.89-17.36-3.3-10.92-4.7-22.24-6.02-33.5-1.01-8.64-.99-17.41-1.27-26.12-.36-11,.34-21.93,1.98-32.85.77-5.13,1.31-10.35,1.8-15.53.35-3.65,2.36-6.48,3.4-9.75,1.29-4.05,2.8-8,4.88-11.79,4.92-8.97,13.12-12.32,22.38-14.91,13.97-3.9,28.14-3.53,42.32-3.19,5.84.14,11.64,1.78,17.49,2.09,7.77.41,15.19,1.85,22.63,4.15,3.43,1.06,7.34,1.59,11.01,1.8,3.85.22,7.36,1.34,10.83,2.57,8.82,3.1,18.13,4.5,26.91,7.62,11.39,4.05,22.79,8.18,33.78,13.18,6.5,2.96,13.3,5.52,19.31,9.39,4.5,2.9,8.79,2.24,12.83.43,8.14-3.65,16.93-4.75,25.44-6.29,7.99-1.45,16.39-.88,24.7-.17,7.3.62,14.46,1.38,21.3,3.8,4.56,1.61,9.09,4.03,9.79,9.64.42,3.38.51,6.94-1.19,10.1-1.81,3.37-2.66,7.09-4.71,10.47-2.34,3.86-2.88,8.78-4.44,13.16-1.82,5.09-2.6,10.52-5.03,15.4-.6,1.21-.37,2.36-.43,3.54-.16,3.5.08,6.99-.7,10.49-.85,3.83.38,7.56,2.31,10.8,2.45,4.11,6.99,4.12,10.99,4.05,8.72-.16,15.97-4.5,23.11-9.01,5.46-3.46,13.24-3.52,17.84,1.06,2.37,2.36,4.86,4.6,6.78,7.38.85,1.23,1.91,1.92,3.68,1.95,7.73.13,8.34-.32,7.18-8.11-.62-4.19-.18-8.37.7-12.28,1.77-7.87,4.09-15.61,8.57-22.6,3.72-5.8,7.07-11.74,11.53-17.14,6.32-7.66,13.9-13.77,21.47-19.98,1.97-1.61,4.73-1.79,6.52-.72,1.96,1.17,4.42,2.71,4.32,5.86-.15,4.84-.12,9.58-1.14,14.48-.7,3.35-1.14,7.22-1.25,10.94-.34,11.88-1.46,23.76-.78,35.65.29,5.09,1.08,10.15.51,15.27-.29,2.59,1.77,2.02,3,2.05,5.3.1,9.81,2.64,14.06,5.13,6.93,4.07,7,14.68.75,20.76-8.44,8.21-18.59,12.26-30.26,12.54-2.52.06-5.05-.5-7.58-.79-4.63-.53-8.07.94-10.9,4.95-6.5,9.23-14.16,17.52-21.87,25.75-1.18,1.26-2.43,2.54-3.88,3.44-3.13,1.93-1.63,3.15.36,4.64,3.64,2.73,7.29,5.46,10.76,8.4,6.16,5.21,3.87,13.36-2.63,17.28-6.51,3.93-13.63,6.09-21.1,6.33-7.62.24-15.15-1.1-22.11-4.56-2.58-1.29-4.69-1.61-7.39.33-3.75,2.7-8.03,4.67-12.08,6.95-1.53.41-3.04.93-4.55,1.39-2.72.83-3.58,2.44-2.77,5.08Z"/>
  <path class="cls-27" d="M61.03,62.14c-11.64-.24-19.52-6.42-25.39-16.06-3.73-6.13-6.09-12.41-5.82-19.79.34-9.24,5.33-15.36,12.41-20.17,3.4-2.31,7.05-4.91,10.93-5.69,4.13-.84,8.86-.4,12.97.76,5.83,1.64,12.11,3.07,16.81,6.9,2.75,2.25,5.85,4.64,7.54,8.52,3.01,6.87,4.61,13.77,2.86,21.02-1.22,5.08-4.06,9.65-7.52,13.55-6.51,7.31-14.59,11.5-24.78,10.96Z"/>
  <path class="cls-24" d="M344.24,148.25c10.13-1.94,21.14,9.56,18.77,20.11-1.93,8.59-11.78,13.86-21.18,11.05-7.38-2.2-10.22-7.4-11.26-14.37-1.17-7.75,2.36-12.83,6.68-15.55,2.4-1.51,4.94-1.04,6.99-1.23Z"/>
  <path class="cls-8" d="M124.12,68.75c-3.55,5.43-8.95,5.7-14.78,6.04-6.31.36-9.73-3.95-13.3-7.39-4.42-4.26-1.87-13.32,3.96-16.61,1.63-.92,3.35-1.69,5.06-2.47,8.15-3.72,19.85,1.74,20.57,11.18.08,1,.35,1.82.88,2.61.26,2.59.03,5.01-2.38,6.65Z"/>
  <path class="cls-24" d="M361.49,110.97c3.45,2.12,8.65,1.07,13.1,3.24,3.65,1.78,5.01,10.14,2.89,14.95-3.41,7.71-13.82,8.19-19.46,5.14-6.16-3.33-8.5-13.96-4.34-19.85,1.59-2.25,3.81-3.81,7.82-3.48Z"/>
  <path class="cls-3" d="M397.57,269.02c4.98,1.56,10.2,3.26,13.04,7.79,2.89,4.6,3.37,9.94-.35,14.68-2.21,2.81-5.05,4.38-8.93,4.06-7.02-.57-11.76-3.9-14.43-10.45-2.84-6.96,2.84-15.64,10.67-16.08Z"/>
  <path class="cls-23" d="M300.56,331.22c-2.43-4.45-2.31-4.74,2.24-5.63,1.69-.33,3.29-1.17,5.08-.84-3.03,1.49-6.14,2.88-7.32,6.47Z"/>
  <path class="cls-7" d="M124.12,68.75c.79-2.21,1.59-4.43,2.38-6.65,2.91.83.79,2.73.69,4.02-.12,1.59-.61,3.45-3.08,2.62Z"/>
  <path class="cls-10" d="M28.07,100.29c7.02-3.64,14.58-4.85,22.36-5.89,5.49-.73,10.91-.58,16.34-1.03,4.8-.4,9.22,1.34,13.92,1.47,5.24.14,10.52.86,15.76,1.5,8.53,1.04,16.83,2.91,25.21,4.64,9.74,2.01,19.23,4.93,28.88,7.3,9.08,2.23,17.77,5.79,26.51,9.13,9.57,3.67,19.18,7.28,28.27,12.06,4.74,2.5,9.37,5.21,14.03,7.87,3.37,1.93,6.49,2.93,9.86-.34,2.57-2.49,6.41-2.52,9.68-3.62,5.96-2.01,12.06-3.6,18.42-3.8,11.46-.58,22.92-.8,34.35.51.4.05.78.21,1.15.4,1.36.7,3.59.24,3.87,2.33.25,1.85-1.53,2.68-2.68,3.79-5.74,5.54-12.89,9.41-18.23,15.43-5.4,6.07-10.31,12.52-14.56,19.44-3.98,6.46-3.01,12.61,1.55,18.44,7.2,9.2,16.04,16.39,26.37,21.78,7.44,8.08,16.48,10.66,27.1,7.96.89-.23,1.88-.05,2.83-.06,6.53-1.26,13.16,1.06,19.68-.56.78-.19,1.69-.16,2.4.18,4.02,1.93,8.19.32,12.27.57,5.44,4.66,11.6,1.59,17.43,1.41,1.63-.05,3.4-.54,5.14-.65,4.95-.3,7.18-3.34,6.01-8.25-1.12-4.69-2.81-9.25-2.68-14.21.11-4.32,1.06-8.45,2.38-12.51,4.67-14.37,13.46-26.03,24.11-36.45.75-.73,1.4-1.83,2.67-1.49,1.05.28.86,1.27.72,2.03-1.79,9.7-1.42,19.57-2.29,29.33-.76,8.58.22,17,.58,25.48.14,3.38-2.03,5.16-3.72,7.28-1.74,2.16-2.67,4.28-1.56,6.98.58,5.45.59,5.5-4.33,7.11-3.12,1.03-5.97,2.34-7.96,5.14-1.22,1.71-2.18,3.37-1.38,5.56.69,1.87-.1,3.04-1.91,3.64-4.5,4.56-8.41,9.63-12.48,14.57-5.86,7.09-11.38,14.43-18.39,20.62-3.95,3.48-9.12,5.95-11.47,11.15-.35.46-.5,1.04-.33,1.52,1.77,5.02-1.65,6.55-5.28,7.94-2.77,1.05-5.43,2.26-7.96,3.86-2.99,1.88-6.52,2.22-9.93,2.8-.24.11-.5.18-.76.21-6.62.06-13.06-1.92-19.72-1.63-3.77.17-7.62-.25-10.73,2.57-7.2,2.33-7.11,2.31-4.92,9.86.55,1.91,2.36,3.74.99,6,1.01,3.72,1.97,7.46,3.03,11.17,3.52,12.24,5.94,24.7,8.16,37.23,1.12,6.33,1.62,12.47.23,18.73-1.13,5.11-2.76,6.16-7.76,4.03-14.65-6.24-29.36-12.29-43.04-20.67-10.86-6.65-21.04-14.15-31.06-21.94-6.24-4.08-10.93-9.85-16.12-15.06-3.39-3.41-6.37-7.16-11.81-6.91.73-2.95-.83-5.24-2.28-7.51-6.57-10.28-11.54-21.33-16.21-32.58-3.36-8.09-6.77-16.18-10.8-23.98-4.16-8.05-7.34-16.53-10.52-24.97-3.96-10.51-9.04-20.55-12.61-31.19-.96-2.86-3.47-4.64-4.29-7.47.83-.62,1.82-.71,2.64-.25,2.51,1.42,5.32,1.36,8.02,1.83,1.52,1.95.81,4.66,2.56,6.68,4.71,5.45,12.4,7.94,19.38,5.62,2.59-.86,5.58-.67,7.63-3.24,4.26-5.32,2.63-14.32-3.69-17.29-4.17-1.96-8.12-5.01-13.23-4.28-.67.1-1.25-.42-1.7-.96-1.55-4.76-1.53-9.86-3.27-14.58-2.15-5.83-7.46-9.74-13.1-9.72-4.87.02-7.42,3.24-9.99,6.64-2.09,2.77-2.88,6.36-5.55,8.75-3.91-7.09-8.64-13.58-13.8-19.81-12.03-14.51-24.97-27.95-40.86-38.41-8.24-5.43-16.86-10.1-25.48-14.82-3.79-2.08-8.33-2.18-12.06-4.45Z"/>
  <path class="cls-4" d="M130.66,198.63c3.95,2.03,4.75,6.16,6.26,9.71,4.43,10.48,8.89,20.96,12.91,31.61,3.21,8.49,6.3,17.09,10.52,25.05,3.47,6.54,6.04,13.42,9.08,20.09,3.43,7.53,6.52,15.24,10.37,22.58,2.54,4.83,5.43,9.48,8.24,14.17,1.02,1.7,1.46,3.2-.52,4.48-.78,7.23,3.94,11.52,8.46,15.96,1.48,1.46,4.02,2.89,3.17,5.19-.95,2.57-3.78,1.05-5.74,1.15-2.22.11-4.54.6-6.72-.38-35.52-3.7-68.92-14.15-100.13-31.56-5.09-2.22-9.46-5.57-14-8.7-16.38-11.31-29.18-25.91-39.87-42.52-.68-1.06-.91-2.21-1.23-3.37-2.87-6.6-5.95-13.12-8.56-19.82-3.02-7.72-4.99-15.78-6.82-23.87-2.21-9.81-3.43-19.73-4.29-29.74-.81-9.42-1.11-18.85-.69-28.26.53-12.04,1.3-24.03,4.65-35.84,1.99-7,4.22-13.72,7.63-20.08,1.04-1.95,2.37-3.62,4.68-4.17,6.34.39,11.94,3.07,17.38,5.96,10.39,5.54,20.46,11.65,29.78,18.86,8.75,6.77,16.54,14.56,23.94,22.8,5.81,6.47,11.29,13.2,16.47,20.15,2.07,2.77,4.37,5.79,4.49,9.64.76.7.96,1.66.87,2.58-.73,6.79,3.13,11.31,7.56,15.59.83.8,2.1,1.31,2.11,2.75Z"/>
  <path class="cls-4" d="M75.14,323.8c-11.91,8.12-22.53,17.94-34.44,26.07-2.96,2.02-4.43,1.4-6.1-1.27-5.93-9.48-9.57-19.59-10.51-30.87-.48-5.77-.92-11.49-.88-17.27.05-7.37,1.03-14.61,3.03-21.71.32-1.14.2-2.41.29-3.62,3.47.42,4.81,3.4,6.19,5.81,3.7,6.45,8.95,11.52,14.14,16.6,8.12,7.96,16.81,15.28,26.12,21.84,1.38.98,3.39,2.01,2.17,4.43Z"/>
  <path class="cls-15" d="M289.14,211.71c-3.92.44-6.45-2.38-9.22-4.26-7.29-4.94-13.76-10.87-18.98-18.01-5.18-7.08-4.12-14.24.65-20.9,5.15-7.19,10.11-14.63,16.66-20.64,5.02-4.6,10.66-8.53,16.03-12.74.75-.59,1.79-1.11,1.75-2.09-.05-1.33-1.41-1.5-2.4-1.78-3.9-1.1-7.94-1.53-11.95-1.61-8.12-.17-16.24-.08-24.36-.09.32-.24.63-.7.95-.7,11.71-.06,23.46-1.32,35.07,1.29,1.31.29,2.54.75,3.79,1.29,5.58,2.38,6.18,3.59,2.65,8.71-4.1,5.97-5.41,13.02-8.03,19.54-1.88,4.67-3.06,9.66-4.2,14.58-2.48,10.74-3.82,21.57-.95,32.46.46,1.75,1.67,3.3,2.54,4.94Z"/>
  <path class="cls-19" d="M75.14,323.8c.14-1.98-1.37-2.8-2.66-3.74-7.82-5.68-15.28-11.74-22.48-18.23-5.23-4.72-9.59-10.14-14.6-14.99-3.07-2.98-4.2-7.46-7.37-10.45-.48-.45-1-.85-1.51-1.27,2.13-2.14,2.15-5.15,3.19-7.75.69-1.72,1.17-3.53,1.75-5.3,4.6,6.58,8.83,13.47,13.91,19.65,5,6.09,10.78,11.53,16.65,16.86,7.58,6.88,16.41,12,24.54,18.08-3.97-1.26-7.44.62-10.31,5.66-.31.55-.28,1.32-1.11,1.46Z"/>
  <path class="cls-15" d="M386.63,240.21c.43-.86,1.44-1.18,1.22-2.68-.88-6.05,2.13-10.3,8.17-12.02,3.48-.99,7.31-1.58,6.18-6.75.73.56.82,1.37.76,2.19-.21,2.94,1.49,3.74,4.02,3.74,4.71,0,9.42-.11,14.1.67.53.09,1.07.12,1.6.23,2.54.49,5.7,1.09,6.33,3.54.64,2.49-2.47,3.69-4.3,5.18-7.44,6.07-16.19,6.37-25.17,5.93-4.3-.21-8.61-.03-12.92-.03Z"/>
  <path class="cls-15" d="M320.8,302.66c1.19-2.4,3.67-1.02,5.41-1.85,5.25-2.51,10.52-4.99,15.81-7.42,1.4-.64,2.09-1.33,1.66-3.06-.31-1.21-.57-2.69.62-3.78-.29,4.21,1.4,6.89,5.32,8.9,4.19,2.15,7.92,5.22,11.8,7.96,2.26,1.59,2.45,3.16-.46,4.18-6.39,2.24-12.85,3.34-19.71,2.32-6.31-.94-11.83-3.61-17.36-6.45-.92-.47-2.05-.54-3.09-.8Z"/>
  <path class="cls-11" d="M186.69,348.23c2.97.04,5.95.13,8.92.1,1.03-.01,2.39.36,2.98-.71.74-1.33-.78-1.77-1.45-2.51-2.61-2.88-5.07-5.93-7.91-8.56-3.34-3.09-3.52-6.43-1.71-10.24,4.19-1.47,6.84.43,9.7,3.49,5.51,5.9,11.02,11.85,17.25,17.04.37.31.51.91.75,1.37-1.13-.48-2.27-.9-3.33.12-1.7,1.63-3.82,2-5.95,1.59-5.69-1.09-11.43-.59-17.14-.81-.81-.03-1.61-.09-2.1-.88Z"/>
  <path class="cls-30" d="M288.91,303.78c1.86-5.05,6.64-3.7,10.01-3.76,6.74-.14,13.54.66,20.19,2.13.35.08.62.47.93.72-7,6.03-14.64,10.96-23.57,13.67-.81-.47-1.89-.88-2.09-1.78-.9-4.14-4.24-7.03-5.47-10.98Z"/>
  <path class="cls-2" d="M353.42,219.8c-4.02,2.24-8.13,2.24-12.31.47-1.19-.51-2.31-.29-3.52.06-5.74,1.69-11.55-.92-17.32.18-.34.06-.81-.58-1.22-.9,6.63-3.05,13.38-5.85,19.54-9.84,1.65-1.07,3.66-1.07,5.23.46,3.23,3.15,6.39,6.37,9.58,9.57Z"/>
  <path class="cls-12" d="M288.91,303.78c2.68,3.11,5.57,6.06,5.95,10.52.07.78,1.05,1.49,1.61,2.23-2.71-1.06-4.24,1.44-6.3,2.23-1.53.59-2.91,1.09-4.52.9-.94-2.76-1.84-5.53-2.81-8.27-2.15-6.02-.33-8.32,6.07-7.62Z"/>
  <path class="cls-25" d="M52.5,48.55c-5.11-1.59-6.8-6.29-9.02-10.33-.99-1.8-2.28-3.55-2.58-5.84-1.36-10.67,4.84-20.12,15.71-21.1,8.94-.8,17.44,2.38,23.74,9.35,4.56,5.05,4.14,14.19-.86,21.32-3.04,4.34-6.8,7.7-12.14,8.93-1.29.53-2.65.18-3.98.3-1.59.13-2.29-.49-1.87-2.11.83-3.2.07-5.88-3.36-6.56-3.41-.68-4.1,2.21-4.77,4.74-.14.53-.43.98-.88,1.31Z"/>
  <path class="cls-29" d="M52.5,48.55c-.03-2.9.04-5.76,3.32-7.11,2.14-.88,3.77-.25,5.45,1.31,2.59,2.41,2.08,4.95.74,7.85,1.89.1,3.62.19,5.34.28-5.3,1.46-10.44,1.89-14.86-2.33Z"/>
  <path class="cls-9" d="M351.99,164.96c.52,3.49-2.34,4.17-5.03,4.48-3.02.35-6.69-3.35-6.7-6.32-.01-2.63,2.57-5.1,5.29-5.05,3.88.06,6.4,2.62,6.44,6.89Z"/>
  <path class="cls-14" d="M111.67,58.08c2.76-.45,3.91,1.3,3.88,3.45-.04,2.96-3.09,3.09-4.79,3.02-2.2-.08-5.72-1.06-5.39-3.64.34-2.67,3.89-2.48,6.3-2.84Z"/>
  <path class="cls-22" d="M364.82,125.16c-1.71-.03-3.48-.39-3.23-2.21.18-1.27.39-3.63,2.49-3.45,1.81.15,3.01,1.74,3.22,3.58.2,1.78-1,2.3-2.47,2.09Z"/>
  <path class="cls-1" d="M402.74,283.5c.01,1.33-.93,2.22-1.68,2-1.92-.55-3.67-1.6-3.95-3.93-.23-1.88,1.25-3.32,2.47-2.88,1.91.69,2.31,3.15,3.17,4.8Z"/>
  <path class="cls-16" d="M130.66,198.63c-7.44-4.99-11.99-11.44-10.53-20.91,2.12-4.43,3.93-9,7.54-12.58,5.15-5.11,12.67-4.93,17.92.09,5.62,5.37,5.89,12.39,6.84,19.28.09.66.05,1.34.06,2.02,1.19,4.5-.67,9.33-4.69,12.26-.33.22-.69.4-1.06.55-1.88.38-3.67,1.25-5.66,1.01-3.9,2.02-6.89-1.51-10.42-1.73Z"/>
  <path class="cls-11" d="M198.63,198.76c3.09.05,6.9,3.38,6.55,6.29-.65,5.44-.47,11.02-2.58,16.26-1.56,3.89-3.41,7.58-6.43,10.53-2.99,2.92-4.22,7.11-7.6,9.84-1.89,1.53-3.71,3.04-5.84,4.19-1.66.9-3.24,1.21-4.86-.19-1.75-1.52-2.22-3.45-1.59-5.49.46-1.5,1.17-3.25,2.34-4.15,3.98-3.05,6.18-7.39,9.07-11.27,4.48-6.01,7.56-12.08,6.51-19.96-.67-5.01.6-6.1,4.44-6.04Z"/>
  <path class="cls-21" d="M227.33,235.06c-.77,10.13-6.11,17.54-13.67,23.73-3.45,2.83-6.83,5.19-11.56,3.05-2.12-.96-3.14-2.62-3.14-4.74,0-1.96,1.5-2.78,3.21-3.66,6.79-3.49,11.91-8.52,13.85-16.24.42-1.67.98-3.37,1.86-4.83,1.22-2,3.1-3.96,5.54-3.27,2.63.75,3.77,3.26,3.91,5.96Z"/>
  <path class="cls-18" d="M146.84,198.68c4.86-2.67,4.73-7.66,5.65-12.15,5.42-1.01,9.76,1.99,14.33,3.97,8.04,3.48,9.95,14.26,3.98,20.55-2.09,2.2-4.79,1.34-7.12,2.31-7.1,2.97-17.64-.65-21.84-7.09-1.22-1.87-.42-3.96-.75-5.92,1.79-.92,3.59-1.83,5.7-1.64-1.66,4.35.33,7.24,3.9,9.32,4.5,2.61,9.45,3.31,14.35,1.73,5.89-1.9,7.32-7.29,3.63-12.19-2.19-2.92-5.34-4.49-8.58-5.85-2.02-.85-3.65.12-5.07,1.55-1.33,1.35-2.25,3.05-3.68,4.3-1.28,1.12-2.54,2.64-4.5,1.1Z"/>
  <path class="cls-6" d="M52.73,142.02c5.84-.42,8.61,4.13,11.57,7.73,5.35,6.5,10.88,12.76,17.4,18.11,1.28,1.05,2.62,1.98,4.35,1.88,3.57-.21,4.98,2.27,6.08,4.97,1.01,2.48-.13,4.61-1.88,6.19-4.27,3.85-8.66,7.61-14.13,9.67-2.72,1.02-3.44,3.91-5.82,5.36-6.06,3.68-11.71,3.18-16.87-1.89-5.63-5.53-11.66-10.67-17.01-16.45-6.99-7.55-12.58-16.12-15.88-25.98-1.02-3.06.74-6.13,3.77-6.33,9.14-.62,18.28-1.1,27.23-3.24.38-.09.81-.01,1.21-.01Z"/>
  <path class="cls-20" d="M46.85,25.93c-1.03-2.12.46-4.1,1.33-6.12,1.31-3.02,4.3-3.64,7.01-1.66,2.85,2.09,4.28,10.56,2.23,13.46-1.71,2.43-4.12,3.74-6.96,2.75-2.43-.84-3.56-3.06-3.61-5.69-.01-.81,0-1.62,0-2.74Z"/>
  <path class="cls-13" d="M146.84,198.68c2.48.43,3.7-1.45,4.94-2.96,5.57-6.73,12.12-6.52,17.45.81,2.14,2.94,4.37,5.9,1.51,9.86-2.9,4.01-6.87,5.84-11.43,5.09-4.1-.68-8.15-.99-11.48-4.1-3.04-2.84-3.68-6.2-1.05-8.67,0,0,.05-.04.05-.04Z"/>
  <path class="cls-5" d="M72.01,173.63c2.11,4.15-2.71,5.48-3.48,8.46-.04.17-.45.25-.69.37-2.39,1.1-2.57,6.59-6.46,4.03-2.11-1.39-4.43-3.01-6.12-5.28-1.64-2.21-4.01-3.89-6.06-5.8-.26-.55-.32-1.13-.22-1.72,1.87-1.49,3.02.1,4.12,1.13,2.07,1.94,4.23,3.78,6.34,5.67,1.87,1.67,3.62,2.27,5.71.47,2.22-1.91,3.37-5.46,1.69-7.2-6.2-6.43-11.01-14.46-19.93-17.87-.12-2.31,1.97-1.85,3.16-2.52,1.6-.62,2.76.01,3.71,1.27,4.24,4.89,9.75,8.58,13.4,14.03h0c1.89,1.38,3.64,2.91,4.84,4.97Z"/>
  <path class="cls-28" d="M50.06,153.36c-1.07.76-2.14,1.52-3.21,2.28-.17.22-.36.41-.6.52-1.92.92-5.37-.16-5.53,2.93-.16,3,1.81,5.58,4.25,7.42,1.96,1.48,4.01,2.78,4.54,5.41.11.54.1,1.07-.19,1.56-.04.64-.07,1.28-.11,1.91-3.56-4.55-8.09-8.25-11.42-13.03-1.33-1.91-3.49-4.17-2.6-5.99.93-1.93,3.91-2.5,6.46-2.19,2.87.35,5.62-.54,8.43-.83Z"/>
  <path class="cls-17" d="M67.18,168.66c-4.63-4.52-9.98-8.35-13.4-14.03,3.34.99,12.74,10.83,13.4,14.03Z"/>
  <path class="cls-17" d="M72.01,173.63c-1.8-1.48-3.58-2.97-4.84-4.98,2.59.71,4.31,2.26,4.84,4.98Z"/>
  <path class="cls-26" d="M49.31,173.48c-.86-2.79-2.45-4.85-5.16-6.28-2.88-1.51-3.85-4.75-4.76-7.52-.68-2.06,1.12-3.71,3.45-3.98,1.32-.15,2.68-.05,4.02-.07,3.01-.06,5.4,1.09,7.47,3.33,4.09,4.43,8.36,8.68,12.54,13.03,2.71,2.82,2.52,6.07-.5,9.23-2.77,2.91-3.94,2.48-7.74-.17-3.32-2.32-5.32-6.18-9.32-7.58Z"/>
</svg>