<?xml version="1.0" encoding="UTF-8"?>
<svg id="Capa_2" data-name="Capa 2" xmlns="http://www.w3.org/2000/svg" viewBox="0 0 429.07 369.09">
  <defs>
    <style>
      .cls-1 {
        fill: #b4571d;
      }

      .cls-1, .cls-2, .cls-3, .cls-4, .cls-5, .cls-6, .cls-7, .cls-8, .cls-9, .cls-10, .cls-11, .cls-12, .cls-13, .cls-14, .cls-15, .cls-16, .cls-17, .cls-18, .cls-19, .cls-20, .cls-21, .cls-22, .cls-23, .cls-24, .cls-25, .cls-26, .cls-27, .cls-28, .cls-29, .cls-30, .cls-31 {
        stroke-width: 0px;
      }

      .cls-2 {
        fill: #7d7d7d;
      }

      .cls-3 {
        fill: #a14e1c;
      }

      .cls-4 {
        fill: #120d0b;
      }

      .cls-5 {
        fill: #f6f5f4;
      }

      .cls-6 {
        fill: #241914;
      }

      .cls-7 {
        fill: #e86f22;
      }

      .cls-8 {
        fill: #252221;
      }

      .cls-9 {
        fill: #633925;
      }

      .cls-10 {
        fill: #1e140e;
      }

      .cls-11 {
        fill: #502816;
      }

      .cls-12 {
        fill: #faf1e7;
      }

      .cls-13 {
        fill: #fdfdfd;
      }

      .cls-14 {
        fill: #7a7a7a;
      }

      .cls-15 {
        fill: #e97022;
      }

      .cls-16 {
        fill: #67341d;
      }

      .cls-17 {
        fill: #5b3421;
      }

      .cls-18 {
        fill: #66351f;
      }

      .cls-19 {
        fill: #9c4b1b;
      }

      .cls-20 {
        fill: #fbfafa;
      }

      .cls-21 {
        fill: #040202;
      }

      .cls-22 {
        fill: #3e3e3f;
      }

      .cls-23 {
        fill: #65331d;
      }

      .cls-24 {
        fill: #fbf5ed;
      }

      .cls-25 {
        fill: #64331d;
      }

      .cls-26 {
        fill: #3d1e10;
      }

      .cls-27 {
        fill: #100906;
      }

      .cls-28 {
        fill: #502c1a;
      }

      .cls-29 {
        fill: #512916;
      }

      .cls-30 {
        fill: #eae4df;
      }

      .cls-31 {
        fill: #522917;
      }
    </style>
  </defs>
  <path class="cls-21" d="M199.7,364.12c-1.55.13-3.1.27-4.65.4-13.94,2.28-27.63.59-41.2-2.65-8.51-2.03-13.22-6.53-13.39-16.27-.11-6.64.66-13.77-2.5-20.19-3.41-1.92-2.18-4.94-1.82-7.75.87-.93,1.8-1.8,2.77-2.63,3.98-2.15,7.02-1.03,9.2,2.75,1.22,2.13,1.94,4.46,2.53,6.84,6.13,24.5,10.88,28.25,35.74,28.61,8,.12,12.54-2.53,10.87-11.57-1.03-5.61-.81-11.34-.38-17.05,5.66-18.61,2.55-38.4,7.69-57.08,3.38-15.76,4.94-31.68,4.32-47.78-.05-3.25.31-6.55-.46-9.76-.75-3.14-.04-5.19-6.08-5.6-7.81-.52-11.8-9.79-13.3-18.17.82-1.86,2.31-2.78,4.24-3.12,13.24,1.81,26.13-1.45,39.13-2.79,9.77-3.76,19.94-6.96,24.78-17.64,4.59-8.48,2.67-18.03,4.49-26.96,2.28-8.5,1.83-17.07.64-25.65-.24-1.22-.27-2.46-.14-3.69.31-1.83,1.15-3.41,2.35-4.81,7.66-11.6,14.76-23.33,8.97-38.07-12.15-6.47-24.96-9.34-38.7-7.49-3.79-.3-7.03-2.13-9.77-4.46-12.54-10.67-27.19-17.16-42.69-22.03-17.7-1.08-29.13-16.92-46.17-19.56-1.98-8.65,1.38-12.85,9.22-7.7,25.44,16.7,57.61,18.77,81.72,38.1,4.87,3.9,10.81,3.01,16.4,3.95,51.67,8.62,50.39,12.96,35.15,55.65-6.62,18.54-6.8,37.42-7.94,56.42-.11,1.87.53,4.05,1.51,5.67,19.83,32.74,14.78,64.11-14.14,89.1-11.86,10.25-24.67,19.08-38.75,25.82-7.08,3.39-9.72,7.58-8.45,15.33,2.48,15.17-4.81,29.72-3.41,44.9.94,1.33,2.11,2.5,2.86,3.96,7.29,14.02,4.71,19.59-10.65,23Z"/>
  <path class="cls-27" d="M138.55,317.49c-.8.07-1.61.13-2.42.17,0-56.58.01-113.16.02-169.74,1.16-.45,2.27-.36,3.35.25,2.15,1.65,2.68,3.92,2.5,6.47-3.61,26.53,4.36,48.78,24.53,66.58,2.69,2.37,6.53,5.26,4.03,9.04-2.67,4.04-6.55.81-9.71-.63-2.21-1-4.21-2.44-6.11-3.98-6.04-7.04-12.82-13.68-13.78-20.47.05,3.65.75,10.61.95,17.6.39,26.4.26,52.77.17,79.14-.32,5.38-.33,10.83-3.54,15.55Z"/>
  <path class="cls-2" d="M199.7,364.12c16.5-4.98,9.16-16.83,7.79-26.96,9.05.64,17.59,3.24,25.33,7.84,6.61,3.92,7.27,8.62-.27,12.36-10.31,5.11-21.3,7.42-32.85,6.76Z"/>
  <path class="cls-14" d="M137.96,325.4c5.63,5.6,3.88,13.28,4.76,19.88,1.05,7.88,4.97,11.02,11.66,13.26,13.24,4.43,27.05,4.43,40.67,5.97-16.93,4.53-34.35,3.6-51.6,4.56-6.3.35-5.83-4.44-5.83-8.39-.01-11.76.21-23.52.34-35.28Z"/>
  <path class="cls-28" d="M136.17,9.94c6.26-2.32,12.23-.35,17.06,2.97,9.18,6.31,18.41,12.07,29.64,13.82-9.26,6.88-19.47,3.99-29.5,2.89-6.78-4.01-8.74-12.38-15.11-16.8-1.42-.44-2.58-1.05-2.08-2.87Z"/>
  <path class="cls-4" d="M136.15,108.32c0-4.09,0-8.18,0-12.27,3.18-3.4,4.94-8.4,10.41-9.25,1.99-.13,3.81.34,5.45,1.5,5.35,6.02,4.8,12.15.39,18.38-3.61,3.62-7.91,4.98-12.95,3.84-1.24-.52-2.35-1.25-3.31-2.2Z"/>
  <path class="cls-26" d="M146.26,88.52c-3.47,2.37-4.65,7.81-10.1,7.54-.1-20.21-.23-40.42-.28-60.63,0-2.28-.7-4.99,2.4-6.12.49.49.97.98,1.46,1.47,4.17,13.23,1.11,26.85,2.11,40.26.35,4.77-1.07,10.01,3.66,13.61.89,1.17,1.13,2.46.74,3.87Z"/>
  <path class="cls-30" d="M138.25,12.82c9.29.25,11.54,6.73,12.62,14.24-2.54,7.87-7.53,5.46-12.53,2.98,0,0-.05-.73-.06-.73-.01-5.5-.02-11-.03-16.5Z"/>
  <path class="cls-22" d="M136.15,108.32c.85.1,1.7.2,2.55.31,5.86,11.92,2.89,24.36,2.18,36.67-.49,1.44-1.31,2.65-2.45,3.65-.76-.35-1.52-.69-2.27-1.04,0-13.2,0-26.4,0-39.59Z"/>
  <path class="cls-23" d="M138.52,302.86v-83.61c7.68-5.55,11.77,2.19,17.29,4.66,5.03.39,7.64,6.17,14.9,5.75-23.61-21.17-39.04-44.71-30.05-77.14,4.09-4.65,8.82-3.83,13.2-.92,14.33,9.51,26.81,20.98,36.08,35.66,3.98,5.4,7.95,10.8,11.87,16.12,5.1-1.58-1.33-6.19,3.26-8.2,5.07,6.28,7.95,13.29,6.95,21.69-3.63,17-2.93,34.39-4.71,51.55-4.7,18.58-.72,38.32-7.63,56.6-8.57,11.94-24.26,17.43-37.4,12.7-5.41-1.95-10.1-5.09-11.9-11.21-2.53-8.58-7.28-16.08-11.85-23.66Z"/>
  <path class="cls-15" d="M138.34,30.04c4.2-.91,8.9.3,12.53-2.98,10.67-.11,21.33-.22,32-.33,19.64,4.62,35.83,15.54,51.18,28,7.21,1.7,10.87,7.51,14.98,12.82,1.87,2.85,3.92,5.59,5.63,8.55,4.86,9.41,8.6,19.17,9.17,29.89.04.78.19,1.53.45,2.27,1.38,9.12,1.38,18.24,0,27.36-2.83,9.84,1.99,20.99-5.17,30.09-8.23-2.51-6.54-11.11-9.95-16.59-5.34-8.6-10.34-16.63-22.33-14.67-5.38-.96-10.99-1.5-13.67-7.41-.64-1.9-.61-3.89-.77-5.87-.3-3.87-1.83-7.06-5.86-8.01-3.65-.86-5.87,1.61-7.83,4.26-1.4,1.9-2.64,4.01-5.2,4.65-13.98-6.63-30.3-6.98-43.32-16.15,4.35-5.81,4.11-11.5-.44-17.09,2.08-4.88,10.68-9.49.58-15.02-3.29,3.82-.22,9.82-4.69,13.06-7.14.51-7.38-4.01-7.32-9.39.18-15.82.04-31.64.03-47.46Z"/>
  <path class="cls-7" d="M217.53,206.42c-4.16-8.9-3.33-14.64,8.47-14.56,3.56.02,7.12-1.66,10.69-2.57,1.97-1.1,4.26-1.15,5.74.24,11.39,10.78,20.48,22.83,20.36,39.57-5.71,6.91-12.83,10.52-21.99,9.28-10.51-7.21-12.48-20.68-21.31-29.14-.7-.9-1.35-1.85-1.95-2.82Z"/>
  <path class="cls-25" d="M261.52,229.02c-3.87-16-10.14-30.49-24.83-39.73,10.49-3.97,20.4-8.12,29.06-16.3,7.43-7.02,9.11,3.6,9.89,7.54,3.83,19.29,1.64,37.66-11.71,53.38-1.84-1.12-2.41-2.86-2.4-4.88Z"/>
  <path class="cls-31" d="M138.52,302.86c5.25,1.67,7.12,5.92,8.84,10.69,9.34,26.05,25.37,30.6,48.08,13.88,1.3-.96,2.82-1.62,4.24-2.41.26,6.12-.98,12.82,1.12,18.23,4.04,10.39-1.77,12.81-9.36,13.32-12.33.83-24.2-3.09-36.2-5.28-3.72-.68-4.19-4.37-4.72-7.79-1.12-7.24-2.7-14.4-3.97-21.62-.86-4.91-2.65-7.8-8-4.41,0-4.88-.02-9.75-.03-14.62Z"/>
  <path class="cls-18" d="M213.96,125.48c2.43,6.26,9.03,3.82,13.25,6.35,5.43,16.54,13.19,32.76,7.14,50.92-13.89,1.57-27.57,7.67-41.81,1.94-.55-.64-.8-1.33-.76-2.06.05-.75.14-1.13.28-1.13.23-.33.4-.74.71-.97q23.92-17.58,11.98-44.47c-.67-1.5-.91-3.1-.78-4.76,2.18-3.9,5.36-6.08,9.97-5.81Z"/>
  <path class="cls-20" d="M234.35,182.74c-2.27-.83-3.12-2.5-2.52-4.76,3.54-13.43.58-25.87-5.83-37.73-1.76-3.26-2.38-6.06,1.2-8.42,9.31-4.32,14.81.4,19.94,7.67,5.67,8.06,8.67,17.16,11.96,26.21-4.63,10.95-15.64,12.61-24.76,17.03Z"/>
  <path class="cls-5" d="M251.83,76.79c-1.51-2.67-3.02-5.33-4.54-8,7.27-11.78,17.95-10.41,29.03-7.53,2.3,1.14,4.2,2.65,3.63,5.55-2.54,12.77-2.75,26.4-13.28,36.25-3.19-2.3-5.49-5.79-4.04-9.25,4.7-11.28-1.62-14.89-10.79-17.01Z"/>
  <path class="cls-29" d="M217.53,206.42c.71.11,1.39.31,2.04.62,3.17,4.11,3.21,8.94,3.32,13.81q.37,15.91,15.23,16.61c5.99,2.66,8.39,7.55,8.63,13.79-6.48,4.41-11.27,11.74-20.31,11.72-7.25-3.12-5.82-11.01-9.01-16.36.04-13.39.07-26.78.11-40.18Z"/>
  <path class="cls-17" d="M276.32,61.25c-10.91-2.22-19.9,2.92-29.03,7.54-4.41-4.69-8.83-9.37-13.24-14.06,15.43-6.52,28.82.2,42.27,6.52Z"/>
  <path class="cls-6" d="M192.52,182.28c-.01.8,0,1.6.02,2.4-.87.86-1.74,1.72-2.61,2.58-12.51-9.52-21.5-22.84-34.73-31.68-4.79-3.2-9.2-4.38-14.55-3.05-.74-1.2-1.49-2.39-2.23-3.58.28-.5.33-1.03.16-1.58,4.31-4.82,9.3-4.26,14.36-1.57,16.36,8.71,29.52,20.93,39.57,36.48Z"/>
  <path class="cls-1" d="M246.75,251.24c-4.37-2.98-4.54-8.5-7.47-12.35-.78-1.03-.64-1.93.41-2.68,8.58,1.57,14.73-4.28,21.84-7.18.8,1.63,1.6,3.26,2.41,4.88-4.17,7.32-10.57,12.42-17.18,17.33Z"/>
  <path class="cls-9" d="M251.83,76.79c17.6-1.89,19.13-.51,13.78,14.63-1.61,4.56-.17,7.85,1.06,11.63-.95.98-1.89,1.96-2.84,2.94-4-9.74-8-19.47-12-29.21Z"/>
  <path class="cls-19" d="M207.31,268.43c-3.9-13.79,1.78-27.58.05-41.39-.51-4.12-.06-8.23,4.66-10.16.89,17.41-.04,34.65-4.71,51.55Z"/>
  <path class="cls-3" d="M217.43,246.59c6.29,3.65,5.28,11.31,9.02,16.36-2.63,3.66-6.02,8.37-10.4,6.53-4.21-1.77-1.04-7.24-.88-10.99.17-3.99,1.46-7.94,2.27-11.9Z"/>
  <path class="cls-9" d="M264.28,135.62c0-9.12,0-18.24,0-27.36,4,9.12,3.6,18.24,0,27.36Z"/>
  <path class="cls-11" d="M155.81,223.92c-6.25.23-10.79-5.86-17.3-4.67,0-6.52,0-13.04,0-21.71,6.45,9.84,11.87,18.11,17.3,26.37Z"/>
  <path class="cls-13" d="M192.52,182.28c-11.35-8.73-19.27-21.24-31.56-28.91-6.79-4.24-13.35-9.86-22.37-6,.04-12.91.08-25.83.11-38.74,3.99-.2,8.03-.18,11.48-2.69,15.86,2.62,31.32,6.38,44.8,15.78,5.43.78,8.7,3.7,9.23,9.32.38.71.67,1.49,1.15,2.12,18.46,24.13,15.02,37.3-12.84,49.12Z"/>
  <path class="cls-24" d="M145.63,86.89c-.02-1.21.02-2.42-.06-3.63-.38-5.45-3.32-12.99,3.24-14.96,5.02-1.51,8.86,4.87,10.65,10.04,3.16,9.17-5.38,7.99-9.71,10.52-1.17-.11-2.33-.23-3.49-.34-.11-.58-.32-1.12-.62-1.63Z"/>
  <path class="cls-10" d="M204.21,131.04c-4.12-2.08-6.92-5.46-9.23-9.33.98-7.84,4.23-14.22,13.27-11.86,7.99,2.08,9.26,8.41,5.71,15.63-3.04,2.22-5.64,5.21-9.75,5.56Z"/>
  <path class="cls-12" d="M217.06,96.55c-2.23,4.98-5.53,9.15-11.21,10.07-4.46.72-7.14-2.6-7.25-6.5-.17-5.8,4.42-7.28,9.23-7.33,3.38-.04,7.6-1.39,9.23,3.76Z"/>
  <path class="cls-16" d="M239.69,236.2c-.14.89-.27,1.79-.41,2.68q-19.56,3.12-19.62-17.16c-.02-4.9-.06-9.8-.09-14.69,10.48,7.13,13.76,19.21,20.12,29.17Z"/>
  <path class="cls-8" d="M182.47,122.9c-.27,5.56-3.6,6.05-6.96,6.02-4.85-.06-9.1-1.81-10.09-7.03-.7-3.68,2.58-5.22,5.47-4.99,4.79.38,9.66,1.43,11.59,6Z"/>
</svg>